<svg xmlns="http://www.w3.org/2000/svg" height="24px" width="24px" viewBox="0 0 256 256" fill="#e8eaed">
	<path fill-rule="evenodd" d="M 242.00 32.00 L 46.00 31.00 L 21.00 96.00 L 77.00 96.00 L 80.00 78.00 L 48.00 77.00 L 58.00 49.00 L 140.00 50.00 L 95.00 206.00 L 73.00 206.00 L 108.00 83.00 L 107.00 78.00 L 92.00 78.00 L 49.00 224.00 L 106.00 225.00 L 146.00 95.00 L 223.00 94.00 Z M 151.00 76.00 L 152.00 75.00 L 152.00 72.00 L 154.00 69.00 L 154.00 65.00 L 156.00 63.00 L 157.00 55.00 L 159.00 53.00 L 159.00 49.00 L 162.00 45.00 L 174.00 45.00 L 175.00 44.00 L 198.00 44.00 L 199.00 45.00 L 217.00 45.00 L 218.00 44.00 L 224.00 44.00 L 225.00 45.00 L 225.00 50.00 L 223.00 55.00 L 223.00 59.00 L 221.00 61.00 L 221.00 64.00 L 218.00 70.00 L 218.00 74.00 L 216.00 76.00 L 216.00 80.00 L 214.00 82.00 L 152.00 82.00 L 151.00 81.00 Z"/>
</svg>
